<svg width="3" height="14" viewBox="0 0 3 14" fill="none" xmlns="http://www.w3.org/2000/svg">
<path d="M1.08 2.15997C0.468001 2.15997 7.82311e-07 1.65597 7.82311e-07 1.07997C7.82311e-07 0.485974 0.486001 -2.55108e-05 1.08 -2.55108e-05C1.674 -2.55108e-05 2.16 0.467974 2.16 1.07997C2.16 1.67397 1.674 2.15997 1.08 2.15997ZM1.08 7.66797C0.468001 7.66797 7.82311e-07 7.16397 7.82311e-07 6.58797C7.82311e-07 5.99397 0.486001 5.50797 1.08 5.50797C1.638 5.50797 2.16 5.95797 2.16 6.58797C2.16 7.18197 1.674 7.66797 1.08 7.66797ZM1.08 13.104C0.468001 13.104 7.82311e-07 12.6 7.82311e-07 12.024C7.82311e-07 11.466 0.450001 10.944 1.08 10.944C1.674 10.944 2.16 11.43 2.16 12.024C2.16 12.636 1.674 13.104 1.08 13.104Z" fill="#757575"/>
</svg>
